<?xml version="1.0" encoding="utf-8"?>
<!-- Generator: Adobe Illustrator 22.1.0, SVG Export Plug-In . SVG Version: 6.00 Build 0)  -->
<svg version="1.1" id="图层_1" xmlns="http://www.w3.org/2000/svg" xmlns:xlink="http://www.w3.org/1999/xlink" x="0px" y="0px"
	 viewBox="0 0 48 48" style="enable-background:new 0 0 48 48;" xml:space="preserve">
<style type="text/css">
	.st0{opacity:0.8;fill:#FABA15;enable-background:new    ;}
</style>
<g>
	<path class="st0" d="M31.4,18.6c0-1.2-0.6-2.4-1.6-3c-0.8-0.4-1.8-0.4-2.6-0.4h-6.8v7h7.4C30,22.2,31.4,20.8,31.4,18.6z"/>
	<path class="st0" d="M28,24.8h-7.8v8h7.4c0.8,0,1.6,0,2.2-0.4c1.4-0.6,2.4-2,2.4-3.8C32.4,26.4,30.6,24.8,28,24.8z"/>
	<path class="st0" d="M24,0C10.8,0,0,10.8,0,24s10.8,24,24,24s24-10.8,24-24S37.2,0,24,0z M31.4,35c-1.2,0.4-2.6,0.4-3.8,0.4h-1.4
		v1.8c0,0.4-0.4,0.6-0.8,0.6h-2.2c-0.4,0-0.8-0.2-0.8-0.6v-1.8H20v1.8c0,0.4-0.4,0.6-0.8,0.6h-1.8c-0.4,0-0.8-0.2-0.8-0.6v-1.8h-2
		c-0.4,0-0.6-0.2-0.6-0.6v-1.6l0,0c0-0.2,0.2-0.6,0.6-0.6h2V15.2h-2.2c-0.2,0-0.4-0.2-0.4-0.4V13c0-0.2,0.2-0.4,0.4-0.4h2.2v-2
		c0-0.4,0.4-0.6,0.8-0.6h2.2c0.4,0,0.8,0.2,0.8,0.6v1.8h2.4v-1.8c0-0.4,0.4-0.6,0.8-0.6h2.2c0.4,0,0.8,0.2,0.8,0.6v1.8h1
		c1.6,0,3,0.2,4.4,0.6c2.2,1,3.6,3,3.4,5.2c0,2-1.2,4-3.2,5l0,0c2.8,0.8,4.2,3,4.2,5.6C36,31.6,34.2,34.2,31.4,35z"/>
</g>
</svg>
