<?xml version="1.0" encoding="utf-8"?>
<!-- Generator: Adobe Illustrator 25.0.0, SVG Export Plug-In . SVG Version: 6.00 Build 0)  -->
<svg version="1.1" id="图层_1" xmlns="http://www.w3.org/2000/svg" xmlns:xlink="http://www.w3.org/1999/xlink" x="0px" y="0px"
	 viewBox="0 0 48 48" style="enable-background:new 0 0 48 48;" xml:space="preserve">
<style type="text/css">
	.st0{fill:#00BFBF;}
</style>
<path class="st0" d="M24,0C10.7,0,0,10.7,0,24s10.7,24,24,24s24-10.7,24-24S37.3,0,24,0z M37,30.6L37,30.6L37,30.6
	c0,0.2,0,0.3,0,0.5l-4.3,0.6c-0.9-3.2-2.5-6.1-4.6-8.7l-12,12L13,31.9l12-12c-2.5-2.1-5.5-3.7-8.7-4.6l0.4-3.2V11
	c4.9-0.1,9.4,1.4,12.9,4.3l1.6-1.6l3.1,3.1l-1.6,1.6C35.5,21.9,37,26.3,37,30.6L37,30.6L37,30.6z"/>
</svg>
