<?xml version="1.0" encoding="utf-8"?>
<!-- Generator: Adobe Illustrator 22.1.0, SVG Export Plug-In . SVG Version: 6.00 Build 0)  -->
<svg version="1.1" id="图层_1" xmlns="http://www.w3.org/2000/svg" xmlns:xlink="http://www.w3.org/1999/xlink" x="0px" y="0px"
	 viewBox="0 0 48 48" style="enable-background:new 0 0 48 48;" xml:space="preserve">
<style type="text/css">
	.st0{opacity:0.8;fill:#278EE0;enable-background:new    ;}
</style>
<path class="st0" d="M24,0C10.8,0,0,10.8,0,24s10.8,24,24,24s24-10.8,24-24S37.2,0,24,0z M10.4,24.4c0.3-1,0.6-2.8,3.3-2.8h10.4
	c0,0-0.1,0.5-0.4,1.9c-0.3,1-0.6,2.8-3.3,2.8H10C10,26.4,10.1,25.8,10.4,24.4z M37.6,24.4c-0.9,4.6-3,8.1-6.6,9.8
	c-1.6,0.8-3.1,1.1-6.7,1.1H14.1l0.9-4.7h8.9c5.3,0,6.8-2.4,7.5-4.4c0.3-0.8,0.9-3.1,0.9-4.5c0-2.7-1.3-4.4-5.9-4.4h-9.2l0.9-4.7
	h10.2C37.3,12.6,38.9,17.5,37.6,24.4z"/>
</svg>
