<?xml version="1.0" encoding="utf-8"?>
<!-- Generator: Adobe Illustrator 22.1.0, SVG Export Plug-In . SVG Version: 6.00 Build 0)  -->
<svg version="1.1" id="图层_1" xmlns="http://www.w3.org/2000/svg" xmlns:xlink="http://www.w3.org/1999/xlink" x="0px" y="0px"
	 viewBox="0 0 48 48" style="enable-background:new 0 0 48 48;" xml:space="preserve">
<style type="text/css">
	.st0{opacity:0.8;fill:#2970FF;enable-background:new    ;}
</style>
<path class="st0" d="M24,0C10.8,0,0,10.8,0,24s10.8,24,24,24s24-10.8,24-24S37.2,0,24,0z M19.5,35.8c-5.2,0-9.5-4.2-9.5-9.5
	c0-3.8,1.7-6.8,5.7-8.5L10,12.2h5.6l9.5,9.5h-5.9c-2.6,0-4.7,2.1-4.7,4.7s2.1,4.7,4.7,4.7h1.9l4.7,4.7
	C25.8,35.8,19.5,35.8,19.5,35.8z M38,35.8h-5.6l-9.5-9.5h5.9c2.6,0,4.7-2.1,4.7-4.7s-2.1-4.7-4.7-4.7h-1.9l-4.7-4.7h6.4
	c5.2,0,9.5,4.2,9.5,9.5c0,3.8-1.7,6.8-5.7,8.5L38,35.8z"/>
</svg>
