<?xml version="1.0" encoding="utf-8"?>
<!-- Generator: Adobe Illustrator 25.0.0, SVG Export Plug-In . SVG Version: 6.00 Build 0)  -->
<svg version="1.1" id="图层_1" xmlns="http://www.w3.org/2000/svg" xmlns:xlink="http://www.w3.org/1999/xlink" x="0px" y="0px"
	 viewBox="0 0 16 16" style="enable-background:new 0 0 16 16;" xml:space="preserve">
<style type="text/css">
	.st0{fill:#FF007A;}
	.st1{fill-rule:evenodd;clip-rule:evenodd;fill:#FF007A;}
</style>
<g>
	<path class="st0" d="M5.6,1.8c-0.2,0-0.2,0-0.1,0c0.2,0,0.5,0,0.8,0.1C6.9,1.9,7.4,2.3,8,3l0.2,0.2l0.2,0c0.9-0.2,1.9,0,2.7,0.3
		c0.2,0.1,0.6,0.3,0.6,0.4c0,0,0,0.1,0.1,0.2c0.1,0.4,0,0.7-0.1,0.9c-0.1,0.1-0.1,0.2,0,0.3c0,0.1,0.1,0.1,0.2,0.1
		c0.2,0,0.4-0.3,0.5-0.8l0-0.2l0.1,0.1C13,5,13.3,5.7,13.4,6.2l0,0.1l-0.1-0.1c-0.1-0.2-0.3-0.3-0.4-0.4c-0.3-0.2-0.6-0.3-1.4-0.3
		c-0.7,0-1.1-0.1-1.6-0.2C9.3,5,8.9,4.7,8.1,3.6c-0.4-0.5-0.6-0.8-0.8-1C6.7,2.1,6.2,1.9,5.6,1.8z"/>
	<path class="st0" d="M11.9,2.8c0-0.3,0.1-0.5,0.2-0.7C12.1,2,12.1,2,12.1,2c0,0,0,0.1,0,0.1c-0.1,0.2-0.1,0.4,0,0.8
		c0.1,0.4,0.1,0.4,0.5,0.9c0.2,0.2,0.4,0.4,0.5,0.5l0.1,0.2l-0.1-0.1c-0.2-0.2-0.6-0.5-0.7-0.5c-0.1,0-0.1,0-0.1,0c0,0,0,0.1,0,0.3
		c0,0.4-0.1,0.6-0.2,0.9c-0.1,0.1-0.1,0.1,0,0c0-0.1,0.1-0.2,0-0.5c0-0.7-0.1-0.9-0.6-1.2C11.3,3.1,11.1,3,11,2.9
		c-0.1-0.1-0.2-0.1-0.2-0.1c0,0,0.5,0.1,0.7,0.2c0.3,0.1,0.3,0.1,0.4,0.1C11.9,3.1,11.9,3.1,11.9,2.8z"/>
	<path class="st0" d="M5.9,4.1C5.6,3.6,5.3,2.8,5.4,2.3l0-0.2l0.1,0c0.2,0,0.4,0.1,0.5,0.2c0.3,0.2,0.5,0.5,0.6,1.2
		c0,0.2,0.1,0.4,0.1,0.5c0,0.1,0.2,0.4,0.3,0.6c0.1,0.1,0,0.2-0.2,0.2C6.6,4.8,6.2,4.5,5.9,4.1z"/>
	<path class="st0" d="M11.5,7.8C9.8,7.1,9.2,6.5,9.2,5.5c0-0.1,0-0.3,0-0.3c0,0,0.1,0,0.1,0.1c0.3,0.3,0.7,0.4,1.8,0.5
		c0.6,0.1,1,0.2,1.3,0.3c1,0.3,1.7,1,1.8,2c0,0.3,0,0.8-0.1,1.1c-0.1,0.2-0.2,0.6-0.3,0.6c0,0,0,0,0-0.1c0-0.4-0.2-0.7-0.5-1
		C13.1,8.5,12.6,8.3,11.5,7.8z"/>
	<path class="st0" d="M10.3,8.1c0-0.1-0.1-0.3-0.1-0.4l0-0.1l0.1,0.1c0.1,0.1,0.2,0.3,0.3,0.5c0.1,0.2,0.1,0.2,0.1,0.5
		c0,0.3,0,0.3-0.1,0.5c-0.1,0.2-0.2,0.4-0.4,0.6c-0.3,0.3-0.7,0.5-1.3,0.6c-0.1,0-0.4,0-0.6,0c-0.6,0-1.1,0.1-1.4,0.2
		c-0.1,0-0.1,0-0.1,0c0,0,0.2-0.2,0.5-0.3c0.3-0.1,0.6-0.2,1.3-0.3c0.3-0.1,0.7-0.1,0.8-0.1C10,9.5,10.4,8.9,10.3,8.1z"/>
	<path class="st0" d="M11.1,9.5c-0.2-0.5-0.3-0.9-0.2-1.4c0,0,0-0.1,0-0.1c0,0,0.1,0,0.1,0.1c0.1,0.1,0.3,0.2,0.9,0.5
		c0.7,0.4,1.1,0.7,1.3,1c0.2,0.3,0.4,0.6,0.4,1c0,0.2,0,0.8,0,1c-0.2,0.7-0.6,1.3-1.2,1.6c-0.1,0-0.2,0.1-0.2,0.1c0,0,0-0.1,0.1-0.2
		c0.2-0.4,0.2-0.9,0.1-1.3c-0.1-0.3-0.3-0.6-0.7-1.2C11.3,9.9,11.2,9.7,11.1,9.5z"/>
	<path class="st0" d="M4.7,12.1c0.6-0.5,1.4-0.9,2.1-1c0.3,0,0.8,0,1.1,0c0.5,0.1,0.9,0.4,1.1,0.7c0.2,0.3,0.3,0.6,0.4,1.2
		c0,0.2,0.1,0.5,0.1,0.5c0.1,0.3,0.2,0.5,0.4,0.7c0.3,0.2,0.7,0.2,1.2,0c0.1,0,0.1-0.1,0.1,0c0,0-0.2,0.2-0.4,0.2
		c-0.2,0.1-0.4,0.1-0.6,0.1c-0.4,0-0.8-0.2-1-0.6c-0.1-0.1-0.2-0.3-0.3-0.6c-0.3-0.7-0.4-0.9-0.8-1.1c-0.3-0.2-0.7-0.2-1-0.1
		c-0.4,0.2-0.5,0.7-0.2,1c0.1,0.1,0.3,0.2,0.5,0.3c0.3,0,0.6-0.2,0.6-0.5c0-0.2-0.1-0.3-0.3-0.4c-0.3-0.1-0.6,0-0.6,0.3
		c0,0.1,0,0.2,0.2,0.2c0.1,0,0.1,0,0,0C7,12.9,7,12.6,7.2,12.4c0.2-0.2,0.7-0.1,0.9,0.2c0.1,0.1,0.1,0.4,0,0.6
		c-0.1,0.4-0.6,0.6-1,0.5c-0.3-0.1-0.4-0.2-0.7-0.5c-0.6-0.6-0.8-0.7-1.7-0.9l-0.2,0L4.7,12.1z"/>
	<path class="st1" d="M1.6,0c1.8,2.2,3.7,4.6,3.9,4.7c0.1,0.2,0.1,0.3-0.1,0.5C5.2,5.3,4.9,5.3,4.8,5.3c-0.1,0-0.3-0.1-0.4-0.2
		C4.3,5.1,4,4.6,3.3,3.4C2.7,2.5,2.2,1.8,2.2,1.8c0,0,0,0,1,1.8c0.7,1.2,0.9,1.6,0.9,1.6c0,0.1,0,0.2-0.2,0.3
		C3.7,5.8,3.6,6.1,3.5,6.7c-0.1,0.7-0.3,1.1-1,2C2.1,9.1,2.1,9.2,2,9.4c-0.1,0.2-0.2,0.4-0.2,0.7c0,0.3,0,0.5,0.1,0.8
		c0.1,0.3,0.2,0.4,0.4,0.8c0.2,0.3,0.3,0.5,0.3,0.6c0,0.1,0,0.1,0.3,0c0.7-0.2,1.3-0.5,1.7-0.8c0.2-0.2,0.3-0.3,0.3-0.6
		c0-0.2,0-0.2-0.1-0.4c-0.1-0.2-0.2-0.3-0.6-0.6C3.8,9.7,3.6,9.4,3.5,9.1c0-0.3,0-0.5,0.3-1c0.3-0.6,0.3-0.8,0.4-1.3
		c0-0.4,0.1-0.5,0.2-0.6C4.4,6,4.5,5.9,4.8,5.9c0.4-0.1,0.7-0.2,0.9-0.4C5.9,5.3,6,5.2,6,4.9l0-0.2L5.9,4.6C5.7,4.3,3.5,1.8,1.8,0
		L1.6,0z M2.9,10.5c0.1-0.2,0-0.4-0.1-0.5C2.6,9.9,2.4,10,2.4,10.1c0,0,0,0.1,0.1,0.1c0.1,0,0.1,0.1,0,0.2c-0.1,0.1-0.1,0.2,0,0.2
		C2.6,10.7,2.8,10.6,2.9,10.5z"/>
	<path class="st1" d="M6.3,6C6.1,6.1,5.9,6.3,5.9,6.5c0,0.1,0,0.4,0,0.5C6,7.1,6.1,7.1,6.3,7.1c0.5,0,0.9-0.2,0.9-0.5
		c0-0.2-0.1-0.5-0.4-0.6C6.7,6,6.4,6,6.3,6z M6.9,6.4c0.1-0.1,0-0.2-0.1-0.3C6.5,6,6.2,6.1,6.2,6.3c0,0.1,0.2,0.2,0.4,0.2
		C6.7,6.6,6.8,6.5,6.9,6.4z"/>
</g>
</svg>
