<?xml version="1.0" encoding="utf-8"?>
<!-- Generator: Adobe Illustrator 22.1.0, SVG Export Plug-In . SVG Version: 6.00 Build 0)  -->
<svg version="1.1" id="图层_1" xmlns="http://www.w3.org/2000/svg" xmlns:xlink="http://www.w3.org/1999/xlink" x="0px" y="0px"
	 viewBox="0 0 48 48" style="enable-background:new 0 0 48 48;" xml:space="preserve">
<style type="text/css">
	.st0{opacity:0.8;fill:#F4B728;enable-background:new    ;}
</style>
<g>
	<path class="st0" d="M24,9C15.7,9,9,15.7,9,24s6.7,15,15,15c8.2,0,14.9-6.7,14.9-15C38.9,15.8,32.2,9,24,9z M30.5,32.3h-4.9v3h-3.1
		v-2.9h-4.8v-2.8L25,19.5v-0.1h-7.5v-3.8h4.9v-3h3v3.1h5v2.7L23,28.5l-0.1,0.2h7.6V32.3z"/>
	<path class="st0" d="M24,0C10.7,0,0,10.7,0,24s10.7,24,24,24s24-10.7,24-24S37.3,0,24,0z M29.2,41.1c-9.8,3.1-20.4-2.9-22.7-12.9
		c-0.2-0.9-0.3-1.8-0.4-2.7C6,25.4,6,25.3,6,25.2c0-0.8,0-1.6,0-2.4c0.1-0.1,0.1-0.2,0.1-0.3c0.2-1.2,0.3-2.4,0.7-3.6
		C9.1,12,13.8,7.8,21,6.3c0.6-0.2,1.3-0.2,1.9-0.3c0.8,0,1.5,0,2.3,0c0.7,0.1,1.5,0.1,2.3,0.3c6.8,1.4,12.3,6.6,13.9,13.4
		C43.6,28.9,38.3,38.3,29.2,41.1z"/>
</g>
</svg>
