<?xml version="1.0" encoding="utf-8"?>
<!-- Generator: Adobe Illustrator 22.1.0, SVG Export Plug-In . SVG Version: 6.00 Build 0)  -->
<svg version="1.1" id="图层_1" xmlns="http://www.w3.org/2000/svg" xmlns:xlink="http://www.w3.org/1999/xlink" x="0px" y="0px"
	 viewBox="0 0 48 48" style="enable-background:new 0 0 48 48;" xml:space="preserve">
<style type="text/css">
	.st0{opacity:0.8;enable-background:new    ;}
</style>
<path class="st0" d="M24,0C10.8,0,0,10.8,0,24s10.8,24,24,24s24-10.8,24-24S37.2,0,24,0z M12.6,12.6l7.9-1.8l8.4,8.4l-2.7,2.7
	L19.3,15l-3.6,0.8l-0.8,3.6l-2.7,2.7l-1.5-1.5L12.6,12.6z M20.5,37.2l-7.9-1.8l-1.8-7.9l8.4-8.4l2.7,2.7L15,28.7l0.8,3.6l3.6,0.8
	l2.7,2.7L20.5,37.2z M35.4,35.4l-7.9,1.8l-8.4-8.4l2.7-2.7l6.9,6.9l3.6-0.8l0.8-3.6l2.7-2.7l1.5,1.5L35.4,35.4z M28.8,28.8l-2.7-2.7
	l6.9-6.9l-0.8-3.6l-3.6-0.8l-2.7-2.7l1.5-1.5l7.9,1.8l1.8,7.9L28.8,28.8z"/>
</svg>
