<?xml version="1.0" encoding="utf-8"?>
<!-- Generator: Adobe Illustrator 22.1.0, SVG Export Plug-In . SVG Version: 6.00 Build 0)  -->
<svg version="1.1" id="Layer_1" xmlns="http://www.w3.org/2000/svg" xmlns:xlink="http://www.w3.org/1999/xlink" x="0px" y="0px"
	 viewBox="0 0 48 48" style="enable-background:new 0 0 48 48;" xml:space="preserve">
<style type="text/css">
	.st0{opacity:0.8;fill:#2775CA;}
</style>
<path class="st0" d="M24,0C10.7,0,0,10.7,0,24s10.7,24,24,24s24-10.7,24-24S37.3,0,24,0z M19.5,40.7c0,0.6-0.4,0.9-1,0.7
	C11.2,39.1,6,32.3,6,24.2c0-8,5.3-14.8,12.5-17.2c0.5-0.2,1,0.2,1,0.7v1.4c0,0.4-0.3,0.8-0.6,0.9C13.2,12.1,9,17.6,9,24.1
	s4.1,12,9.9,14.1c0.4,0.1,0.6,0.6,0.6,0.9V40.7z M25.5,35.5c0,0.4-0.3,0.8-0.8,0.8h-1.5c-0.4,0-0.8-0.3-0.8-0.8v-2.4
	c-3.3-0.4-4.9-2.3-5.3-4.8c-0.1-0.4,0.3-0.8,0.7-0.8h1.7c0.4,0,0.7,0.3,0.7,0.6c0.3,1.5,1.2,2.6,3.8,2.6c1.9,0,3.3-1.1,3.3-2.7
	s-0.8-2.2-3.7-2.7c-4.2-0.6-6.2-1.8-6.2-5.1c0-2.5,1.9-4.5,4.9-4.9V13c0-0.4,0.3-0.8,0.8-0.8h1.5c0.4,0,0.8,0.3,0.8,0.8v2.4
	c2.4,0.4,4,1.8,4.5,4.1c0.1,0.4-0.2,0.8-0.7,0.8h-1.6c-0.3,0-0.6-0.2-0.7-0.5c-0.4-1.4-1.5-2.1-3.3-2.1c-2,0-3,1-3,2.3
	c0,1.4,0.6,2.1,3.6,2.6c4.1,0.6,6.3,1.7,6.3,5.2c0,2.7-2,4.8-5.1,5.3v2.4H25.5z M29.5,41.4c-0.5,0.2-1-0.2-1-0.7v-1.4
	c0-0.4,0.3-0.8,0.6-0.9c5.7-2.1,9.9-7.6,9.9-14.1s-4.1-12-9.9-14.1c-0.3-0.2-0.6-0.6-0.6-1V7.8c0-0.6,0.4-0.9,1-0.7
	C36.8,9.4,42,16.2,42,24.3C42,32.3,36.7,39.1,29.5,41.4z"/>
</svg>
