<?xml version="1.0" encoding="utf-8"?>
<!-- Generator: Adobe Illustrator 22.1.0, SVG Export Plug-In . SVG Version: 6.00 Build 0)  -->
<svg version="1.1" id="图层_1" xmlns="http://www.w3.org/2000/svg" xmlns:xlink="http://www.w3.org/1999/xlink" x="0px" y="0px"
	 viewBox="0 0 48 48" style="enable-background:new 0 0 48 48;" xml:space="preserve">
<style type="text/css">
	.st0{opacity:0.8;fill:#0A93EB;enable-background:new    ;}
</style>
<path class="st0" d="M24,0C10.8,0,0,10.8,0,24s10.8,24,24,24s24-10.8,24-24S37.2,0,24,0z M14,12l6.4,6.6c2,2,5,2,7,0l6.4-6.6h4
	l-8.4,8.6c-3,3.2-8,3.2-11,0L10,12H14z M34,36l-6.4-6.6c-2-2-5-2-7,0L14,36h-4l8.4-8.6c3-3.2,8-3.2,11,0L38,36H34z"/>
</svg>
