<?xml version="1.0" encoding="utf-8"?>
<!-- Generator: Adobe Illustrator 22.1.0, SVG Export Plug-In . SVG Version: 6.00 Build 0)  -->
<svg version="1.1" id="图层_1" xmlns="http://www.w3.org/2000/svg" xmlns:xlink="http://www.w3.org/1999/xlink" x="0px" y="0px"
	 viewBox="0 0 48 48" style="enable-background:new 0 0 48 48;" xml:space="preserve">
<style type="text/css">
	.st0{opacity:0.8;fill:#6BBBED;enable-background:new    ;}
</style>
<path class="st0" d="M24,0C10.8,0,0,10.8,0,24s10.8,24,24,24s24-10.8,24-24S37.2,0,24,0z M36,31.8l-1.2,3.6c-0.2,0.4-0.4,0.6-1,0.6
	H12.4L16,25.6l-4,1l0.8-2.4l4-1L22,8.6C22.2,8.2,22.4,8,23,8h5.4c0.4,0,0.8,0.2,0.8,0.6v0.2L25,21.2l4-1l-1,2.4l-4,1l-2.6,7.6h14
	C35.6,31,36,31.4,36,31.8L36,31.8z"/>
</svg>
