<?xml version="1.0" encoding="utf-8"?>
<!-- Generator: Adobe Illustrator 22.1.0, SVG Export Plug-In . SVG Version: 6.00 Build 0)  -->
<svg version="1.1" id="图层_1" xmlns="http://www.w3.org/2000/svg" xmlns:xlink="http://www.w3.org/1999/xlink" x="0px" y="0px"
	 viewBox="0 0 48 48" style="enable-background:new 0 0 48 48;" xml:space="preserve">
<style type="text/css">
	.st0{opacity:0.8;fill:#50AE94;enable-background:new    ;}
</style>
<g>
	<path class="st0" d="M24,0C10.8,0,0,10.8,0,24s10.8,24,24,24s24-10.8,24-24S37.2,0,24,0z M26.8,28c0,0.2,0,0.2,0,0.4V36
		c0,1.2-0.8,2-2,2H23c-1.2,0-2-0.8-2-2v-7.4c0-0.2,0-0.2,0-0.4c-6.2-0.4-11-1.8-11-3.4s4.8-2.8,11.2-3.2v-1.8c0-0.2,0-0.2,0-0.4
		h-5.8c-1.2,0-2-0.8-2-2V16c0-1.2,0.8-2,2-2h17c1.2,0,2,0.8,2,2v1.4c0,1.2-0.8,2-2,2h-5.8c0,0.2,0,0.2,0,0.4v1.8
		c6.4,0.4,11.2,1.6,11.2,3.2C38,26.4,33.2,27.8,26.8,28z"/>
	<path class="st0" d="M26.8,22.8v0.6c0,1.2-0.8,2-2,2H23c-1.2,0-2-0.8-2-2v-0.6c-5,0.2-8.8,1-8.8,1.8c0,1,5.2,1.8,11.6,1.8
		s11.6-0.8,11.6-1.8C35.6,23.8,31.8,23,26.8,22.8z"/>
</g>
</svg>
