<?xml version="1.0" encoding="utf-8"?>
<!-- Generator: Adobe Illustrator 22.1.0, SVG Export Plug-In . SVG Version: 6.00 Build 0)  -->
<svg version="1.1" id="图层_1" xmlns="http://www.w3.org/2000/svg" xmlns:xlink="http://www.w3.org/1999/xlink" x="0px" y="0px"
	 viewBox="0 0 48 48" style="enable-background:new 0 0 48 48;" xml:space="preserve">
<style type="text/css">
	.st0{fill:#60BF64;}
</style>
<g>
	<path class="st0" d="M26.9,19.8c0.2-0.4,0.2-0.9,0.1-1.4c0-0.1,0-0.2-0.1-0.2c-0.1-0.4-0.4-0.8-0.8-1.1c-0.2-0.1-0.3-0.2-0.5-0.3
		c-2-0.4-3.4,0-5.5,0.5l1.3,5.2c2.1-0.5,3.4-0.8,5-2.2C26.7,20.2,26.8,20,26.9,19.8z"/>
	<path class="st0" d="M30.3,26.2L30.3,26.2C30.2,26.1,30.2,26.1,30.3,26.2L30.3,26.2c0-0.1,0-0.1,0-0.1V26c-0.2-0.5-0.5-0.9-0.9-1.2
		c-0.2-0.1-0.4-0.2-0.6-0.3c-2.4-0.4-4.1,0.1-6.4,0.7l1.4,5.6c2.4-0.6,4.1-1,6-2.5c0.1-0.2,0.3-0.4,0.4-0.6
		C30.3,27.2,30.4,26.7,30.3,26.2L30.3,26.2z"/>
	<path class="st0" d="M24,0C10.7,0,0,10.7,0,24s10.7,24,24,24s24-10.7,24-24S37.3,0,24,0z M29.1,32.6l1.1,4.3l-2.6,0.7l-1.1-4.3
		l-2,0.5l1.1,4.3L23,38.7l-1.1-4.3l-5.3,1.4l-0.1-3.2c1.2-1,2.6-1.2,2.5-2.7c-0.1-2.8-1.1-7.2-3-10.3c-1.1-1-2.3-1.2-3.7-0.4
		l-0.7-2.7l5.3-1.4l-1.1-4.3l2.6-0.7l1.1,4.3l2-0.5l-1.1-4.3L23,9l1.1,4.3c3.7-1,6.3,0.2,7.6,3.4l0,0c0.3,1.8-0.2,3.2-1.3,4.4
		c2.4,0.3,4,1.6,4.9,3.9C35.5,29.3,34.1,31.3,29.1,32.6z"/>
</g>
</svg>
